<!DOCTYPE svg PUBLIC "-//W3C//DTD SVG 1.1//EN" "http://www.w3.org/Graphics/SVG/1.1/DTD/svg11.dtd">

<!-- Uploaded to: SVG Repo, www.svgrepo.com, Transformed by: SVG Repo Mixer Tools -->
<svg fill="#000000" width="800px" height="800px" viewBox="0 0 24 24" id="qr-code-scan" data-name="Line Color" xmlns="http://www.w3.org/2000/svg" class="icon line-color">

<g id="SVGRepo_bgCarrier" stroke-width="0"/>

<g id="SVGRepo_tracerCarrier" stroke-linecap="round" stroke-linejoin="round"/>

<g id="SVGRepo_iconCarrier">

<path id="secondary" d="M13,11V7h4v4Zm4,6V15H15v2ZM7,13v4h4V13ZM7,7V9H9V7Z" style="fill: none; stroke: #2ca9bc; stroke-linecap: round; stroke-linejoin: round; stroke-width: 2;"/>

<path id="primary" d="M21,8V4a1,1,0,0,0-1-1H16" style="fill: none; stroke: #EFFFFB; stroke-linecap: round; stroke-linejoin: round; stroke-width: 2;"/>

<path id="primary-2" data-name="primary" d="M16,21h4a1,1,0,0,0,1-1V16" style="fill: none; stroke: #EFFFFB; stroke-linecap: round; stroke-linejoin: round; stroke-width: 2;"/>

<path id="primary-3" data-name="primary" d="M8,3H4A1,1,0,0,0,3,4V8" style="fill: none; stroke: #EFFFFB; stroke-linecap: round; stroke-linejoin: round; stroke-width: 2;"/>

<path id="primary-4" data-name="primary" d="M3,16v4a1,1,0,0,0,1,1H8" style="fill: none; stroke: #EFFFFB; stroke-linecap: round; stroke-linejoin: round; stroke-width: 2;"/>

</g>

</svg>